<?xml version="1.0" encoding="UTF-8" standalone="no"?>
<!-- Created with Inkscape (http://www.inkscape.org/) -->
<svg id="svg2" xmlns:rdf="http://www.w3.org/1999/02/22-rdf-syntax-ns#" xmlns="http://www.w3.org/2000/svg" xmlns:osb="http://www.openswatchbook.org/uri/2009/osb" height="1500" width="1500" version="1.1" xmlns:cc="http://creativecommons.org/ns#" xmlns:dc="http://purl.org/dc/elements/1.1/">
 <metadata id="metadata7">
  <rdf:RDF>
   <cc:Work rdf:about="">
    <dc:format>image/svg+xml</dc:format>
    <dc:type rdf:resource="http://purl.org/dc/dcmitype/StillImage"/>
    <dc:title/>
   </cc:Work>
  </rdf:RDF>
 </metadata>
 <g id="layer2">
  <rect id="rect3071" height="1430" width="1500" y="0" x="0" fill="#03254a"/>
  <rect id="rect3847" height="70" width="250" y="1430" x="0" fill="#e51d3a"/>
  <rect id="rect3849" height="70" width="250" y="1430" x="250" fill="#f48f25"/>
  <rect id="rect3851" height="70" width="250" y="1430" x="500" fill="#f4ec25"/>
  <rect id="rect3853" height="70" width="250" y="1430" x="750" fill="#57ad48"/>
  <rect id="rect3855" height="70" width="250" y="1430" x="1e3" fill="#1d60ae"/>
  <rect id="rect3857" height="70" width="250" y="1430" x="1250" fill="#5b429d"/>
 </g>
 <g id="layer4">
  <rect id="rect3861" height="410" width="240" y="645" x="50" fill="#e51d3a"/>
  <rect id="rect3863" height="410" width="240" y="645" x="1210" fill="#5b429d"/>
  <path id="path3865" fill="#1d60ae" d="m1210 645h-100v-40h-50v40h-50v410h200z"/>
  <path id="path3867" d="m290 645h100v-40h50v40h50v410h-200z" fill="#e17827"/>
  <path id="path3009" fill="#f7ee23" d="m750 460-280 110 20 70v380h260z"/>
  <path id="path3779" d="m750 460 280 110-20 70v380h-260z" fill="#73bf45"/>
 </g>
 <g id="layer5">
  <g fill-opacity=".53333">
   <path id="rect3782" d="m320 750v72h-7v18h7 50 7v-18h-7v-72h-50z"/>
   <path id="path3787" d="m425 750v72h-7v18h7 50 7v-18h-7v-72h-50z"/>
   <path id="path3789" d="m107 750v72h-7v18h7 50 7v-18h-7v-72h-50z"/>
   <path id="path3791" d="m215 750v72h-7v18h7 50 7v-18h-7v-72h-50z"/>
   <path id="path3793" d="m560 750v72h-7v18h7 50 7v-18h-7v-72h-50z"/>
   <path id="path3795" d="m725 750v72h-7v18h7 50 7v-18h-7v-72h-50z"/>
   <path id="path3797" d="m1180 750v72h7v18h-7-50-7v-18h7v-72h50z"/>
   <path id="path3799" d="m1075 750v72h7v18h-7-50-7v-18h7v-72h50z"/>
   <path id="path3801" d="m1393 750v72h7v18h-7-50-7v-18h7v-72h50z"/>
   <path id="path3803" d="m1285 750v72h7v18h-7-50-7v-18h7v-72h50z"/>
   <path id="path3805" d="m940 750v72h7v18h-7-50-7v-18h7v-72h50z"/>
  </g>
  <g stroke="#000" stroke-opacity=".53333" fill="none">
   <g stroke-width="15">
    <rect id="rect3023" height="105" width="55" y="889" x="208.5"/>
    <rect id="rect3793" height="105" width="55" y="889" x="314"/>
    <rect id="rect3795" height="105" width="55" y="889" x="104"/>
    <rect id="rect3797" height="105" width="55" y="889" x="560"/>
   </g>
   <rect id="rect3801" height="104.18" width="61.678" y="889.41" x="418.91" stroke-width="15.822"/>
   <g stroke-width="15">
    <rect id="rect3806" transform="scale(-1,1)" height="105" width="55" y="889" x="-1291.5"/>
    <rect id="rect3808" transform="scale(-1,1)" height="105" width="55" y="889" x="-1186"/>
    <rect id="rect3810" transform="scale(-1,1)" height="105" width="55" y="889" x="-1396"/>
    <rect id="rect3812" transform="scale(-1,1)" height="105" width="55" y="889" x="-940"/>
   </g>
   <rect id="rect3814" transform="scale(-1,1)" height="104.18" width="61.678" y="889.41" x="-1081.1" stroke-width="15.822"/>
  </g>
  <g>
   <g fill-opacity=".53333">
    <path id="path3818" d="m750 865c-13.058 0-24.16 8.3538-28.281 20h56.562c-4.12-11.65-15.22-20-28.28-20z"/>
    <rect id="rect3823" height="125" width="60" y="895" x="720"/>
    <rect id="rect3825" height="385" width="120" y="635" x="530"/>
    <rect id="rect3827" height="385" width="120" y="635" x="690"/>
    <rect id="rect3829" height="385" width="120" y="635" x="850"/>
   </g>
   <g fill-opacity=".26667">
    <path id="path3847" d="m550 645c0 8.4223-6.7157 15.25-15 15.25v4.75l35 60h75v-64.75c-8.2843 0-15-6.8277-15-15.25h-80z"/>
    <path id="rect3858" d="m710 645c0 8.4223-6.7157 15.25-15 15.25v64.75h110v-64.75c-8.2843 0-15-6.8277-15-15.25h-80z"/>
    <path id="path3864" d="m950 645c0 8.4223 6.7157 15.25 15 15.25v4.75l-35 60h-75v-64.75c8.2843 0 15-6.8277 15-15.25h80z"/>
   </g>
  </g>
 </g>
 <g id="layer3">
  <path id="rect3868" fill="#fff" d="m475 1005v12.5h-12.5v50h-2.5c0 5.5 4.48 10 10 10h280 280c5.5 0 10-4.5 10-10h-2.5v-50h-12.5v-12.5h-70v15h-90v-15h-70v15h-45-45v-15h-70v15h-90v-15h-70z"/>
  <g stroke="#fff" fill="none">
   <g>
    <g>
     <path id="path3890" d="m52.5 1062.5h1395" stroke-width="15"/>
     <path id="path4194" d="m52.5 1027.5h1395" stroke-width="5"/>
     <path id="path4196" d="m52.5 695h437.5m520 0h437.5" stroke-width="15"/>
    </g>
    <path id="path4198" stroke-linejoin="round" d="m52.5 640h330v-40h60v40h37.5v-10h540v10h37.5v-40h60v40h330" stroke-width="15"/>
   </g>
   <g stroke-linecap="round" stroke-width="15">
    <path id="path4202" d="m647.5 642.5h45"/>
    <path id="path4206" d="m807.5 642.5h45"/>
    <path id="path4208" d="m482.5 642.5h55"/>
    <path id="path4210" d="m962.5 642.5h55"/>
   </g>
   <path id="path4216" d="m52.5 640h330v-40m60 0v40h37.5m540 0h37.5v-40m60 0v40h330" stroke-width="15"/>
   <path id="path4222" d="m460 562.5 290-115 285 115" stroke-linecap="round" stroke-width="27.5"/>
  </g>
  <g stroke="#fff">
   <path id="path4230" stroke-linejoin="round" d="m505 537.5v-20h60z" fill-rule="evenodd" stroke-width="25" fill="#fff"/>
   <path id="path4234" stroke-linejoin="round" d="m995 537.5v-20h-60z" fill-rule="evenodd" stroke-width="25" fill="#fff"/>
   <path id="path4238" d="m750 450v-110" stroke-width="7.5" fill="none"/>
  </g>
  <path id="path4240" d="m750 349s7.015 6.6656 13.067 8.6667c10.006 3.3085 21.602 0.66421 31.6 1 2.9217 0.0981 13.79 3.492 14.667 4.6667 1.0333 1.3849 4.1684 36.443 3.0667 37.8-1.4391 1.7727-16.405-8.2827-29.067-8.2-7.501 0.049-14.5 4.615-22 4.7333-3.84 0.06-11.33-2.07-11.33-2.07z" fill-rule="evenodd" fill="#fff"/>
  <g stroke="#fff">
   <path id="path4242" d="m455 570l20 20v40h270 5 270v-40l20-20h-290-5-290z" fill-rule="evenodd" stroke-width="5" fill="#fff"/>
   <path id="path4249" stroke-linejoin="round" d="m1400 640h52.5v5l-10 10v40h12.5v12.5l-12.5 12.5v302.5h10v40h-52.5" stroke-width="15" fill="none"/>
   <path id="path4267" stroke-linejoin="round" d="m100 640h-52.5v5l10 10v40h-12.5v12.5l12.5 12.5v302.5h-10v40h52.5" stroke-width="15" fill="none"/>
  </g>
 </g>
</svg>
